<?xml version="1.0" encoding="UTF-8"?>
<!DOCTYPE svg PUBLIC "-//W3C//DTD SVG 1.1//EN" "http://www.w3.org/Graphics/SVG/1.1/DTD/svg11.dtd">
<!-- Creator: CorelDRAW X6 -->
<svg xmlns="http://www.w3.org/2000/svg" xml:space="preserve" width="210mm" height="297mm" version="1.1" style="shape-rendering:geometricPrecision; text-rendering:geometricPrecision; image-rendering:optimizeQuality; fill-rule:evenodd; clip-rule:evenodd"
viewBox="0 0 21000 29700"
 xmlns:xlink="http://www.w3.org/1999/xlink">
 <defs>
  <style type="text/css">
   <![CDATA[
    .str0 {stroke:#2B2A29;stroke-width:50}
    .fil7 {fill:none}
    .fil8 {fill:#2A2928}
    .fil5 {fill:#D9DADA}
    .fil4 {fill:#E6AD6E}
    .fil6 {fill:#FEFEFE}
    .fil2 {fill:#28386A}
    .fil3 {fill:#9097AC}
    .fil0 {fill:#95364B}
    .fil1 {fill:#AE8C95}
   ]]>
  </style>
   <clipPath id="id0">
    <rect x="250432" y="-41454" width="53509" height="53509"/>
   </clipPath>
 </defs>
 <g id="Слой_x0020_1">
  <metadata id="CorelCorpID_0Corel-Layer"/>
  <g style="clip-path:url(#id0)">
   <image id="загруженное.jpg" x="250432" y="-41454" width="53509" height="53509" xlink:href="Безымянный-1_Images\Безымянный-1_ImgID1.png"/>
  </g>
  <path class="fil0" d="M385381 -23575c5493,825 16452,2358 19120,5633l2195 1453c3638,3444 9746,11225 9804,15759 760,809 1300,2709 1221,3927 2423,3557 2238,15000 -660,18288 -1631,-339 -1394,-241 -1957,-1446 -337,-164 -152,48 -716,-547l-1841 -2668c-1895,-2930 -6190,-9583 -7260,-12211l-762 -848c-411,-575 -618,-977 -887,-1376 -686,-1018 -1144,-1631 -1809,-2643 -3499,-4489 -6486,-8461 -10187,-12378 -1262,-1250 -2530,-2175 -3828,-3469 -1494,-1489 -2441,-1955 -4018,-3357l-102 493c633,617 1197,960 2147,1813l6755 6658c1596,1959 2834,3306 4462,5475 748,997 1255,1754 2097,2808 930,1165 1646,1710 1835,3035 1114,544 3248,4030 3806,5346l2771 5005c510,339 5492,8489 5607,8937 92,59 228,43 269,188l680 595c346,348 155,262 718,797 4039,3835 4820,-4444 5740,-5900 -713,-5570 1,-8474 -1858,-14164 -1248,-3819 -2821,-8145 -4947,-11025 -1002,-2065 -3552,-4946 -5260,-6678l-959 -1150c-845,-193 -3363,-2514 -8008,-4220 -3403,-1250 -6568,-1447 -9991,-2250l-8940 -593c681,61 1398,16 2129,30 312,7 1289,60 1561,129 1033,264 493,-29 1073,554z"/>
  <path class="fil1" d="M382468 -19238l1226 273 102 -493c-2142,-2893 -7778,-2402 -10546,-1660 391,-613 -7,-345 767,-988 2111,-1754 8977,-1569 11364,-1469 -580,-583 -40,-290 -1073,-554 -272,-69 -1249,-122 -1561,-129 -731,-14 -1448,31 -2129,-30 -4145,92 -8599,1747 -9031,5234 1684,-1006 1030,-2438 5161,-2142 1996,143 4702,566 5720,1958z"/>
  <path class="fil2" d="M372830 -11781l865 1148c1776,2342 2862,122 3900,-1468 833,-1276 1635,-1726 1983,-3159 -1360,1079 -2863,3562 -4345,4460 -846,-604 -1732,-2501 -2011,-3912 -613,-3114 338,-3613 795,-4561l-1221 90c-1453,4154 -36,4188 34,7402z"/>
  <path class="fil3" d="M374017 -19273c1577,48 4611,-1501 7026,680 -21,1649 -260,1952 -1286,2966 1413,-231 788,273 1432,-824 279,-475 409,-1604 497,-2140 -1422,-2033 -6219,-1945 -6844,-1665 -1242,557 -488,-382 -825,983z"/>
  <path class="fil4" d="M-71123 89681c0,0 0,0 0,0m-273 266c0,0 0,0 0,0z"/>
  <g id="_284531816">
   <g>
    <polygon class="fil5" points="7065,6706 10407,6385 10787,6186 10881,6034 10822,5904 10665,5799 10397,5699 9960,5586 9598,5556 8717,5805 7738,6294 "/>
    <path class="fil6" d="M15962 23538l-814 -1031 -369 -717c-49,-96 -156,-103 -203,-196l-699 -1387 -212 -766 -364 -522 -61 -379 -293 -669 -176 -189 -78 -155 -91 -596 -120 -147 -35 -400 -107 -178 -261 -511 -63 -388c-17,-107 48,-207 18,-291l-288 -818 -514 -1633c-300,-952 -560,-1857 -745,-2590l-162 -642 -248 -581 -62 -463 96 -326 -129 -349 109 -387 339 -851 -1230 -105 -613 17 -439 67 -495 139 -711 294 -210 145 -148 170 -269 355 -157 263 -164 246 -245 1008 -25 1972 352 2079 272 1124 351 1170 688 1832 681 1454 606 1104 652 984c44,62 699,915 1291,1558 389,423 787,726 839,751l877 588 820 397 772 189 769 68 347 -85 471 -202 304 -193 99 -119 47 -108z"/>
    <path class="fil7 str0" d="M10407 6385c634,-235 648,-502 -49,-698 -914,-257 -698,-104 -1507,73 -283,62 -1694,827 -1810,970 -25,31 -304,127 -466,386 -33,54 -205,226 -269,361 -126,269 -376,471 -403,761m10059 15300c-239,-246 -235,-278 -404,-547 -40,-64 -251,-254 -357,-396 -136,-183 -333,-851 -625,-1001 -29,-15 -661,-1250 -683,-1357 -28,-32 -144,-665 -228,-796 -165,-258 -377,-397 -399,-678 -21,-258 -239,-904 -470,-1061 -228,-155 -18,-721 -314,-918 -54,-647 -55,-354 -310,-870 -82,-165 -206,-608 -137,-797 59,-162 -341,-867 -366,-1180 -5,-59 -577,-1805 -631,-1953 -71,-194 -100,-367 -195,-607 -161,-408 -274,-980 -356,-1402 -31,-160 -162,-509 -162,-642 -145,-224 -401,-868 -284,-1151 155,-378 -82,-252 -33,-702 20,-183 434,-993 399,-1095m-4500 1836c-1159,4208 2957,16024 8787,16024 237,0 1335,-434 1250,-709m-5514 -17160c-1614,-195 -2368,-181 -3648,516"/>
   </g>
   <g>
    <polygon class="fil6" points="7716,22198 7948,22511 11824,20197 13274,18526 11930,17969 11552,17951 11404,18006 11228,18303 12014,18351 12767,18778 12029,19338 11705,19460 10909,19933 8918,21160 "/>
    <path class="fil8" d="M10916 20003c-80,30 -699,400 -820,473 -164,98 -673,374 -816,488l-1418 1176c10,54 20,126 50,166 158,-119 519,-475 696,-618 34,-28 47,-45 81,-76l440 -390c35,-30 52,-54 88,-83 37,-30 58,-45 92,-80 161,-165 1098,-614 1245,-743 63,-55 112,-99 178,-152 57,-46 144,-107 184,-161zm209 -130c32,34 210,119 238,119 36,-1 658,-300 714,-327 129,-64 112,-66 187,-169l435 -593 -697 569c-105,77 -731,306 -877,401zm1322 -1524c31,-142 -212,-244 -340,-287 -123,-41 -411,-111 -544,-96 83,47 598,101 711,225 -214,-26 -620,-212 -823,-153 -137,41 -177,320 152,259 98,-18 199,-27 301,-26 98,2 194,14 287,37 93,23 157,65 256,41zm2247 1325c-226,276 -506,496 -502,884 3,227 -82,821 -176,1046 -97,232 -487,210 -684,222 -375,23 -609,-252 -265,-256 2,-74 41,-121 105,-69 186,152 398,-118 422,-317 33,-278 79,-762 -103,-762 -127,0 -859,733 -935,818 -50,162 109,249 -5,296 -128,55 -156,43 -292,64 -113,3 -228,21 -318,63 -993,462 -1999,603 -2967,998 -602,245 -1335,953 -1619,390l-21 -31c-45,-140 -103,-228 -50,-380l150 -215c40,-51 72,-87 114,-136l234 -261 103 -114c80,-89 578,-551 643,-582l257 -203c431,-328 860,-571 1327,-834 245,-135 511,-250 766,-380 161,-83 104,-76 165,-242 54,-145 391,-242 531,-297 489,-170 213,88 557,-171 78,-58 391,-304 447,-330 -74,-130 -413,-309 -652,-340 -156,-20 -504,-184 -584,-150 -105,-5 -127,1 -181,-62 -33,-39 -68,-98 -74,-163 -15,-181 101,-203 264,-205 314,-22 790,-67 1039,141 97,80 118,112 271,163 217,73 423,140 641,215 160,56 180,10 324,-52l912 -372c102,-27 214,-72 323,-105 319,-96 625,-166 954,-85 -36,475 -792,1413 -1121,1814z"/>
   </g>
  </g>
 </g>
</svg>
